<?xml version="1.0" encoding="UTF-8"?> <svg xmlns="http://www.w3.org/2000/svg" xmlns:xlink="http://www.w3.org/1999/xlink" version="1.1" id="Calque_1" x="0px" y="0px" viewBox="0 0 91.97 61.22" style="enable-background:new 0 0 91.97 61.22;" xml:space="preserve"> <style type="text/css"> .st0{fill-rule:evenodd;clip-rule:evenodd;} .st1{fill-rule:evenodd;clip-rule:evenodd;fill:#FF4D00;} </style> <path class="st0" d="M90.55,23.48L80.72,0c-0.06,0-0.11,0-0.17,0c-2.34,0-4.63,0-6.97,0l-0.04,0.09c-0.05,0.11-0.11,0.23-0.16,0.34 c-3.59,8.51-7.18,17.03-10.76,25.55c-0.12,0.28-0.23,0.56-0.35,0.84c0.07,0.02,0.09,0.04,0.12,0.04c2.45,0,4.91,0,7.36,0.01 c0.27,0,0.32-0.14,0.4-0.33c0.54-1.36,1.08-2.71,1.62-4.07c0.09-0.24,0.2-0.35,0.48-0.35c3.19,0.01,6.37,0.01,9.56,0 c0.25,0,0.36,0.08,0.46,0.32c0.54,1.36,1.11,2.7,1.65,4.06c0.11,0.27,0.24,0.38,0.54,0.38c2.35-0.02,4.71-0.01,7.06-0.01 c0.15,0,0.3,0.03,0.46,0.04c0-0.06,0-0.11,0-0.17C91.5,25.65,91.01,24.57,90.55,23.48z M74.09,16.34c0.98-2.48,1.96-4.93,2.96-7.47 c0.99,2.53,1.95,4.98,2.93,7.47C78.01,16.34,76.08,16.34,74.09,16.34z"></path> <path class="st0" d="M76.28,36.63c-1.25,1.77-2.47,3.49-3.68,5.2c-0.78-0.44-1.53-0.9-2.31-1.29c-1.65-0.81-3.39-1.32-5.24-1.28 c-0.54,0.01-1.09,0.15-1.6,0.33c-0.58,0.21-0.93,0.67-0.97,1.32c-0.04,0.66,0.21,1.22,0.8,1.46c1.08,0.43,2.18,0.82,3.3,1.1 c2.05,0.51,4.11,0.96,6.02,1.88c1.1,0.53,2.11,1.19,2.9,2.14c1.21,1.45,1.55,3.15,1.45,4.98c-0.22,3.98-2.67,6.63-6.39,7.54 c-5.95,1.45-11.47,0.36-16.37-3.43c-0.12-0.09-0.23-0.2-0.35-0.31c-0.02-0.02-0.03-0.04-0.07-0.09c1.35-1.61,2.7-3.23,4.08-4.88 c0.3,0.22,0.59,0.43,0.89,0.64c2.4,1.67,5.04,2.61,7.98,2.53c0.58-0.02,1.17-0.15,1.72-0.34c0.65-0.22,1.03-0.72,1.06-1.43 c0.03-0.69-0.31-1.2-0.9-1.45c-0.92-0.38-1.86-0.73-2.81-0.98c-1.96-0.51-3.94-0.91-5.82-1.7c-1.07-0.45-2.08-1-2.93-1.8 c-1.68-1.57-2.17-3.57-1.99-5.77c0.29-3.61,2.54-6.23,6.25-7.33c1.75-0.52,3.54-0.61,5.35-0.51c2.81,0.15,5.47,0.83,7.9,2.3 C75.14,35.82,75.7,36.23,76.28,36.63z"></path> <path class="st0" d="M27.77,33.58c2.77,0,5.46,0.01,8.15-0.01c0.26,0,0.33,0.14,0.43,0.31c1.7,3.01,3.4,6.02,5.1,9.03 c0.05,0.09,0.1,0.17,0.17,0.29c0.09-0.14,0.17-0.25,0.24-0.37c1.7-2.98,3.39-5.96,5.09-8.94c0.08-0.14,0.27-0.31,0.41-0.31 c2.65-0.02,5.3-0.01,8-0.01c-0.1,0.17-0.18,0.31-0.26,0.45c-3.19,5.22-6.38,10.43-9.56,15.66c-0.16,0.26-0.25,0.6-0.25,0.9 c-0.02,3.03-0.01,6.06-0.01,9.09c0,0.14,0,0.28,0,0.44c-2.48,0-4.93,0-7.43,0c0-0.16,0-0.31,0-0.47c0-3,0.01-6-0.01-9.01 c0-0.28-0.08-0.59-0.22-0.82c-3.2-5.29-6.42-10.58-9.63-15.87C27.92,33.85,27.86,33.75,27.77,33.58z"></path> <path class="st0" d="M23.41,34.3c1.14,1.14,2.31,2.31,3.51,3.5c-3.04,2.98-6.09,5.98-9.17,9.01c3.06,3.01,6.12,6.01,9.14,8.97 c-1.8,1.8-3.59,3.59-5.41,5.41c-2.95-3-5.95-6.06-8.97-9.14c-3.02,3.07-6.02,6.13-9,9.16c-1.19-1.19-2.36-2.36-3.5-3.51 C7.79,49.92,15.61,42.1,23.41,34.3z"></path> <path class="st0" d="M60.46,26.41c0,0.13,0,0.29,0,0.45c-0.12,0.01-0.23,0-0.34,0c-1.32,0-2.65,0.01-3.97-0.01 c-0.18,0-0.42-0.1-0.52-0.24c-3.56-4.53-7.1-9.07-10.65-13.6c-0.05-0.06-0.1-0.13-0.12-0.17c1.57-1.57,3.12-3.12,4.7-4.7 c1.09,1.34,2.21,2.7,3.41,4.16c0-0.23,0-0.34,0-0.46c0-2.27,0.01-4.54-0.01-6.81c0-0.29,0.09-0.49,0.29-0.69 c1.44-1.41,2.86-2.84,4.29-4.26c0.96,0,1.93,0,2.89,0"></path> <path class="st0" d="M41.96,15.64c0,3.77,0,7.48,0,11.2c-2.42,0-4.83,0-7.27,0c-0.01-0.13-0.03-0.25-0.03-0.37 c0-1.07-0.01-2.14,0.01-3.21c0-0.18,0.07-0.4,0.19-0.52C37.2,20.39,39.55,18.04,41.96,15.64z"></path> <path class="st1" d="M4.52,15.21c0,3.93,0,7.8,0,11.7c-0.94,0-1.85,0-2.78,0c0-8.93,0-17.85,0-26.8c6.63,0,13.25,0,19.9,0 c0,0.94,0,1.86,0,2.82c-5.7,0-11.38,0-17.09,0c0,3.15,0,6.26,0,9.43c5.08,0,10.16,0,15.26,0c0,0.98,0,1.9,0,2.85 C14.72,15.21,9.65,15.21,4.52,15.21z"></path> <path class="st1" d="M34.68,0.1c1.2,0,2.37-0.01,3.54,0.01c0.12,0,0.27,0.09,0.35,0.18c2.23,2.76,4.45,5.53,6.67,8.3 c0.02,0.02,0.02,0.05,0.01,0.04c-0.7,0.7-1.38,1.38-2.08,2.08c-1.86-2.31-3.74-4.65-5.62-6.98c-0.03,0-0.07,0.01-0.1,0.01 c0,0.16,0,0.31,0,0.47c0,3.96,0,7.92,0.01,11.88c0,0.31-0.08,0.53-0.3,0.74c-0.72,0.69-1.42,1.41-2.13,2.12 c-0.1,0.1-0.2,0.19-0.35,0.33C34.68,12.85,34.68,6.51,34.68,0.1z"></path> <path class="st1" d="M26.69,27.28c0-9.11,0-18.11,0-27.15c0.92,0,1.84,0,2.81,0c0,0.16,0,0.31,0,0.46c0,7.82,0,15.65,0.01,23.47 c0,0.29-0.09,0.5-0.29,0.7C28.39,25.57,27.58,26.4,26.69,27.28z"></path> <path class="st1" d="M11.25,42.66c-0.59,0.59-1.24,1.24-1.86,1.85c-3.04-3.04-6.11-6.11-9.14-9.14c0.61-0.61,1.25-1.25,1.86-1.86 C5.12,36.53,8.18,39.59,11.25,42.66z"></path> </svg> 